<svg width="140" height="27" viewBox="0 0 140 27" fill="none" xmlns="http://www.w3.org/2000/svg">
<path d="M38.4666 20V7.40002H41.7966L46.4406 15.626H46.5126V7.40002H49.3206V20H45.9726L41.3286 11.828H41.2566V20H38.4666Z" fill="#FFF5E5"/>
<path d="M24.2402 20V7.40002H33.2402V9.92003H27.0662V12.242H32.6822V14.762H27.0662V17.498H33.2402V20H24.2402Z" fill="#FFF5E5"/>
<path d="M9.53998 20V17.534L15.552 10.01V9.93802H9.70198V7.40002H19.098V9.90202L13.104 17.408V17.48H19.206V20H9.53998Z" fill="#FFF5E5"/>
<path d="M123.753 20.162C119.703 20.162 117.651 17.3 117.651 13.718C117.651 10.082 119.703 7.23804 123.753 7.23804C126.975 7.23804 129.063 9.30804 129.333 11.792H126.453C126.255 10.766 125.517 9.79404 123.753 9.79404C121.665 9.79404 120.531 11.18 120.531 13.718C120.531 16.256 121.665 17.624 123.753 17.624C125.445 17.624 126.219 16.706 126.471 15.698H124.113V13.196H129.423V14.618C129.423 17.984 127.047 20.162 123.753 20.162Z" fill="#FFF5E5"/>
<path d="M101.754 20V7.40002H105.084L109.728 15.626H109.8V7.40002H112.608V20H109.26L104.616 11.828H104.544V20H101.754Z" fill="#FFF5E5"/>
<path d="M90.5895 20.162C86.5215 20.162 84.4695 17.3 84.4695 13.7C84.4695 10.082 86.5215 7.23804 90.5895 7.23804C94.6395 7.23804 96.7095 10.082 96.7095 13.7C96.7095 17.3 94.6395 20.162 90.5895 20.162ZM90.5895 17.606C92.6775 17.606 93.8295 16.238 93.8295 13.7C93.8295 11.162 92.6775 9.79404 90.5895 9.79404C88.4835 9.79404 87.3495 11.162 87.3495 13.7C87.3495 16.238 88.5015 17.606 90.5895 17.606Z" fill="#FFF5E5"/>
<path d="M70.26 20V7.40002H75.984C78.558 7.40002 80.142 9.21802 80.142 11.558C80.142 13.97 78.522 15.788 75.984 15.788H73.086V20H70.26ZM73.086 13.268H75.426C76.632 13.268 77.262 12.71 77.262 11.558C77.262 10.478 76.578 9.90202 75.426 9.90202H73.086V13.268Z" fill="#FFF5E5"/>
<rect width="2" height="27" rx="1" fill="#FFF5E5"/>
<rect x="138" width="2" height="27" rx="1" fill="#FFF5E5"/>
<circle cx="60" cy="14" r="3" fill="#FFF5E5"/>
</svg>
